<?xml version="1.0" encoding="utf-8"?>
<!-- Generator: Adobe Illustrator 21.0.2, SVG Export Plug-In . SVG Version: 6.00 Build 0)  -->
<svg version="1.1" id="Layer_1" xmlns="http://www.w3.org/2000/svg" xmlns:xlink="http://www.w3.org/1999/xlink" x="0px" y="0px"
	 viewBox="0 0 711 99.7" style="enable-background:new 0 0 711 99.7;" xml:space="preserve">
<style type="text/css">
	.st0{stroke:#020202;stroke-width:1.8136;stroke-miterlimit:10;}
</style>
<g id="Layer_1_1_">
</g>
<g id="Layer_6">
	<g>
		<path d="M34.6,32.9v7.3c0,9.7-7.8,17.6-17.2,17.6H9.6V88c0,1.2-1,2.4-2.4,2.4H2.4C1.2,90.4,0,89.2,0,88V57.7V48V17.9
			c0-1.4,1.2-2.4,2.4-2.4h15C26.8,15.5,34.6,23.3,34.6,32.9z M25,32.9c0-4.2-3.4-7.7-7.6-7.7H9.6V48h7.8c4.2,0,7.6-3.5,7.6-7.9
			C25,40.1,25,32.9,25,32.9z"/>
		<path d="M164.3,17.9v55c0,9.7-7.8,17.6-17.2,17.6c-9.6,0-17.4-7.9-17.4-17.6v-55c0-1.4,1.2-2.4,2.4-2.4h4.8c1.3,0,2.4,1.1,2.4,2.4
			v55c0,4.4,3.4,7.9,7.8,7.9c4.2,0,7.6-3.5,7.6-7.9v-55c0-1.4,1-2.4,2.4-2.4h4.8C163.3,15.5,164.3,16.5,164.3,17.9z"/>
		<path d="M211.4,32.9V88c0,1.2-1,2.4-2.4,2.4h-4.8c-1.3,0-2.4-1.2-2.4-2.4V32.9c0-4.2-3.4-7.7-7.6-7.7c-4.3,0-7.8,3.5-7.8,7.7V88
			c0,1.2-1,2.4-2.4,2.4h-4.8c-1.3,0-2.4-1.2-2.4-2.4V32.9c0-9.5,7.8-17.4,17.4-17.4C203.6,15.5,211.4,23.3,211.4,32.9z"/>
		<path d="M258.5,33v39.8c0,9.7-7.6,17.6-17.2,17.6h-12.6c-2.5,0-4.8-2.3-4.8-4.8V20.3c0-2.7,2.2-4.8,4.8-4.8h12.6
			C250.8,15.5,258.5,23.3,258.5,33z M248.9,33c0-4.4-3.4-7.9-7.6-7.9h-7.8v55.4h7.8c4.2,0,7.6-3.5,7.6-7.7V33z"/>
		<path d="M317.4,38v-5.1c0-4.2-3.4-7.7-7.6-7.7s-7.6,3.5-7.6,7.7V73c0,4.2,3.4,7.7,7.6,7.7s7.6-3.5,7.6-7.7v-5.6
			c0-1.4,1-2.4,2.4-2.4h4.8c1.3,0,2.4,1.1,2.4,2.4V73c0,9.5-7.8,17.4-17.2,17.4c-9.6,0-17.2-7.9-17.2-17.4V32.9
			c0-9.5,7.6-17.4,17.2-17.4c9.4,0,17.2,7.9,17.2,17.4V38c0,1.4-1,2.4-2.4,2.4h-4.8C318.4,40.5,317.4,39.4,317.4,38z"/>
		<path d="M372.5,33v55c0,1.4-1,2.4-2.4,2.4h-4.8c-1.3,0-2.4-1.1-2.4-2.4V57.9h-15.4V88c0,1.4-1,2.4-2.4,2.4h-4.8
			c-1.3,0-2.4-1.1-2.4-2.4V33c0-9.5,7.8-17.4,17.4-17.4C364.7,15.6,372.5,23.5,372.5,33z M362.9,33c0-4.2-3.4-7.7-7.6-7.7
			c-4.3,0-7.8,3.5-7.8,7.7v15.1h15.4V33z"/>
		<path d="M419.6,40.2c0,5-2.1,9.5-5.4,12.7c3.3,3.2,5.4,7.6,5.4,12.6V88c0,1.2-1,2.4-2.4,2.4h-4.8c-1.3,0-2.4-1.2-2.4-2.4V65.4
			c0-4.2-3.4-7.7-7.8-7.7h-7.6V88c0,1.2-1,2.4-2.4,2.4h-4.8c-1.3,0-2.4-1.2-2.4-2.4V57.7V48V17.9c0-1.4,1-2.4,2.4-2.4h4.8
			c1.3,0,2.4,1.1,2.4,2.4V48h7.6c4.3,0,7.8-3.5,7.8-7.9V17.9c0-1.4,1-2.4,2.4-2.4h4.8c1.3,0,2.4,1.1,2.4,2.4V40.2z"/>
		<path d="M441.7,25.2V48h13c1.3,0,2.4,1.1,2.4,2.4v4.8c0,1.4-1,2.4-2.4,2.4h-13v23h13c1.3,0,2.4,1.1,2.4,2.4v5c0,1.4-1,2.4-2.4,2.4
			h-17.8c-2.7,0-4.8-2.3-4.8-4.8V20.3c0-2.7,2.1-4.8,4.8-4.8h17.8c1.3,0,2.4,1.1,2.4,2.4v4.8c0,1.4-1,2.4-2.4,2.4h-13V25.2z"/>
	</g>
	<path d="M104.5,76.3l-2.4,8c0,0-24.4,8.8-46.8,0l-3-7.6c-9.5,2.4-15.5,6-15.5,10c0,7.2,19.1,13,42.6,13s42.6-5.8,42.6-13
		C122.1,82.5,115.2,78.7,104.5,76.3z"/>
	<path d="M90.5,0.7c0,0-22.3-5.2-25.3,13.2c0,0-11.6,1.3-12.2,10.6c0,0-15.8,6-10.1,17.1s5.6,20.3,9.5,13.3s2.4-2.1,7.4,2.5
		s8-9.3,8-9.3s7.3-10.2,10.7,3.4s6.2,6.8,6.2,6.8s0.6-14.3,7.2-8.1c6.5,6.3,7.7-3.1,7.7-3.1s3-7.8,7.4,0c4.5,7.8,5.4-8.8,5.4-8.8
		S115.8,21,100.9,21c0,0,2.5-10.6-9.5-11.6C75.2,8.1,90.5,0.7,90.5,0.7z"/>
	<g>
		<path class="st0" d="M524,28.5v11.2c0,7.4-5.8,13.5-13.2,13.5h-11.7v36c0,0.3-0.3,0.6-0.6,0.6h-0.3c-0.4,0-0.7-0.3-0.7-0.6v-36
			v-1.7V15.8c0-0.5,0.3-0.8,0.7-0.8h12.6C518.2,15,524,21.1,524,28.5z M522.5,28.5c0-6.5-5.2-11.8-11.7-11.8h-11.7v34.8h11.7
			c6.4,0,11.7-5.3,11.7-11.8V28.5z"/>
		<path class="st0" d="M540.1,76.3V28.5c0-7.4,6-13.5,13.3-13.5s13.2,6.1,13.2,13.5v47.9c0,7.4-5.8,13.5-13.2,13.5
			S540.1,83.8,540.1,76.3z M541.7,28.5v47.9c0,6.5,5.2,11.8,11.7,11.8c6.4,0,11.7-5.3,11.7-11.8V28.5c0-6.5-5.2-11.8-11.7-11.8
			C547,16.7,541.7,22,541.7,28.5z"/>
		<path class="st0" d="M585.8,15.8c0-0.5,0.3-0.8,0.6-0.8h0.3c0.4,0,0.8,0.3,0.8,0.8v72.4h14.7c0.3,0,0.6,0.3,0.6,0.6v0.5
			c0,0.3-0.3,0.6-0.6,0.6h-15.6c-0.4,0-0.7-0.5-0.7-0.9L585.8,15.8L585.8,15.8z"/>
		<path class="st0" d="M620.3,15.8c0-0.5,0.3-0.8,0.6-0.8h0.3c0.4,0,0.8,0.3,0.8,0.8v73.4c0,0.3-0.3,0.6-0.8,0.6h-0.3
			c-0.3,0-0.6-0.3-0.6-0.6V15.8z"/>
		<path class="st0" d="M664.5,31.4v-2.9c0-6.5-5.2-11.8-11.7-11.8c-6.4,0-11.7,5.3-11.7,11.8c0,0,0,2.1,0,3.8c0,0.2,0,0.2,0,0.2v1.8
			c0,0.6,0.3,1.4,0.6,1.8l23.4,31.7c0.6,0.8,0.9,2,0.9,2.9v1.7h0.1c0,0.2,0,0.2,0,0.3v3.8c0,3.6-1.5,7-3.9,9.5
			c-2.5,2.6-5.8,3.9-9.4,3.9c-7.3,0-13.3-6.1-13.3-13.5v-2.9c0-0.3,0.3-0.6,0.7-0.6h0.3c0.3,0,0.6,0.3,0.6,0.6v2.9
			c0,6.5,5.2,11.8,11.7,11.8c6.4,0,11.7-5.3,11.7-11.8v-3.9v0.2c0-0.2,0-0.2,0-0.3v-1.7c0-0.6-0.3-1.4-0.6-1.8l-23.4-31.7
			c-0.6-0.8-0.9-2-0.9-2.9v-1.8h-0.1v-3.9c0-3.6,1.5-7,3.9-9.5c2.5-2.6,5.8-3.9,9.4-3.9c7.3,0,13.3,6.1,13.3,13.5v2.9
			c0,0.3-0.3,0.6-0.7,0.6h-0.3C664.8,32,664.5,31.7,664.5,31.4z"/>
		<path class="st0" d="M710.1,15.8v73.4c0,0.3-0.3,0.6-0.6,0.6H709c-0.3,0-0.6-0.3-0.6-0.6v-36H685v36c0,0.3-0.2,0.6-0.6,0.6h-0.3
			c-0.3,0-0.6-0.3-0.6-0.6V15.8c0-0.5,0.3-0.8,0.6-0.8h0.3c0.4,0,0.6,0.3,0.6,0.8v35.9h23.4V15.8c0-0.5,0.3-0.8,0.6-0.8h0.4
			C709.8,15,710.1,15.3,710.1,15.8z"/>
	</g>
</g>
</svg>
